<svg xmlns="http://www.w3.org/2000/svg" xmlns:xlink="http://www.w3.org/1999/xlink" viewBox="0 0 130.64 140.29"><defs><style>.cls-1{fill:none;}.cls-2{clip-path:url(#clip-path);}.cls-3{fill:url(#linear-gradient);}.cls-4{fill:#fff;}.cls-5{clip-path:url(#clip-path-2);}.cls-6{fill:url(#linear-gradient-2);}</style><clipPath id="clip-path"><path class="cls-1" d="M18.91,91.19a47.9,47.9,0,0,0,92.32.37c-6.89,6.89-28.72-9.84-45.91-9.84-17.41,0-33.47,19.16-46.41,9.47"/></clipPath><linearGradient id="linear-gradient" x1="-334.68" y1="4214.2" x2="-333.68" y2="4214.2" gradientTransform="matrix(0, 66.97, 66.97, 0, -282166.48, 22476.85)" gradientUnits="userSpaceOnUse"><stop offset="0" stop-color="#fff"/><stop offset="1" stop-color="#979797"/></linearGradient><clipPath id="clip-path-2"><path class="cls-1" d="M17.69,78.94s.84.49,2.15,1.22a19.25,19.25,0,0,0,25.09-5.57L59.44,54.36a7.26,7.26,0,0,1,11.76,0l14.55,20.3a19.28,19.28,0,0,0,25.72,5.2c.91-.56,1.47-.91,1.47-.92a47.63,47.63,0,1,0-95.25,0"/></clipPath><linearGradient id="linear-gradient-2" x1="-334.68" y1="4214.27" x2="-333.68" y2="4214.27" gradientTransform="matrix(56.27, 0, 0, -56.27, 18862.36, 237209.07)" xlink:href="#linear-gradient"/></defs><title>Asset 1</title><g id="Layer_2" data-name="Layer 2"><g id="Layer_1-2" data-name="Layer 1"><g class="cls-2"><rect class="cls-3" x="35.97" y="55.09" width="58.21" height="98.03" transform="translate(-47.68 152.67) rotate(-81.3)"/></g><path class="cls-4" d="M65.32,106.8A77.22,77.22,0,0,1,18.91,91.36a47.9,47.9,0,0,0,92.32.37A77.17,77.17,0,0,1,65.32,106.8"/><g class="cls-5"><rect class="cls-6" x="11.28" y="16.31" width="108.08" height="83.84" transform="translate(-16.28 26.64) rotate(-20.56)"/></g><path class="cls-4" d="M39.6,72.38,59.44,45A7.26,7.26,0,0,1,71.2,45L91,72.38a18.82,18.82,0,0,0,21.15,6.9c.47-.16.75-.28.75-.34a47.63,47.63,0,1,0-95.25,0c0,.06.28.18.76.34a18.82,18.82,0,0,0,21.15-6.9"/></g></g></svg>